<?xml version="1.0" encoding="utf-8"?>
<!-- Generator: Adobe Illustrator 24.0.0, SVG Export Plug-In . SVG Version: 6.00 Build 0)  -->
<svg version="1.1" id="图层_1" xmlns="http://www.w3.org/2000/svg" xmlns:xlink="http://www.w3.org/1999/xlink" x="0px" y="0px"
	 viewBox="0 0 200 200" style="enable-background:new 0 0 200 200;" xml:space="preserve">
<path d="M135.6,29.8c-2.7-2.6-7.9-4.8-11.7-4.8h-73c-6.8,0-12.3,5.8-12.3,13V162c0,7.2,5.5,13,12.3,13h98.2c6.8,0,12.3-5.9,12.3-13
	V61.9c0-3.8-2.2-9-4.9-11.6L135.6,29.8L135.6,29.8z M72.7,65.9h54.5c3.8,0,6.8,3.1,6.8,6.8c0,3.8-3.1,6.8-6.8,6.8H72.7
	c-3.8,0-6.8-3.1-6.8-6.8C65.9,69,69,65.9,72.7,65.9z M72.7,93.2H100c3.8,0,6.8,3.1,6.8,6.8c0,3.8-3.1,6.8-6.8,6.8H72.7
	c-3.8,0-6.8-3.1-6.8-6.8C65.9,96.2,69,93.2,72.7,93.2z"/>
</svg>
