<?xml version="1.0" standalone="no"?><!DOCTYPE svg PUBLIC "-//W3C//DTD SVG 1.1//EN" "http://www.w3.org/Graphics/SVG/1.1/DTD/svg11.dtd"><svg t="1583919276855" class="icon" viewBox="0 0 1024 1024" version="1.1" xmlns="http://www.w3.org/2000/svg" p-id="7428" xmlns:xlink="http://www.w3.org/1999/xlink" width="200" height="200"><defs><style type="text/css"></style></defs><path d="M53.894737 107.789474h916.210526c16.168421 0 26.947368 10.778947 26.947369 26.947368s-10.778947 26.947368-26.947369 26.947369H53.894737C37.726316 161.684211 26.947368 150.905263 26.947368 134.736842S37.726316 107.789474 53.894737 107.789474z" p-id="7429"></path><path d="M732.968421 997.052632H296.421053c-43.115789 0-75.452632-32.336842-80.842106-75.452632L167.073684 215.578947c0-16.168421 10.778947-26.947368 26.947369-26.947368s26.947368 10.778947 26.947368 26.947368l48.505263 706.021053c0 16.168421 10.778947 26.947368 26.947369 26.947368h436.547368c16.168421 0 26.947368-10.778947 26.947368-26.947368L808.421053 215.578947c0-16.168421 16.168421-26.947368 26.947368-26.947368 16.168421 0 26.947368 16.168421 26.947368 26.947368l-48.505263 706.021053c-5.389474 43.115789-37.726316 75.452632-80.842105 75.452632z" p-id="7430"></path><path d="M377.263158 269.473684c16.168421 0 26.947368 10.778947 26.947368 26.947369l21.557895 538.947368c0 16.168421-10.778947 26.947368-26.947368 26.947368s-26.947368-10.778947-26.947369-26.947368L350.315789 296.421053c0-16.168421 10.778947-26.947368 26.947369-26.947369zM646.736842 269.473684c-16.168421 0-26.947368 10.778947-26.947368 26.947369l-21.557895 538.947368c0 16.168421 10.778947 26.947368 26.947368 26.947368s26.947368-10.778947 26.947369-26.947368l21.557895-538.947368c0-16.168421-10.778947-26.947368-26.947369-26.947369zM377.263158 26.947368h269.473684c16.168421 0 26.947368 10.778947 26.947369 26.947369s-10.778947 26.947368-26.947369 26.947368h-269.473684c-16.168421 0-26.947368-10.778947-26.947369-26.947368s10.778947-26.947368 26.947369-26.947369z" p-id="7431"></path></svg>