<?xml version="1.0" standalone="no"?><!DOCTYPE svg PUBLIC "-//W3C//DTD SVG 1.1//EN" "http://www.w3.org/Graphics/SVG/1.1/DTD/svg11.dtd"><svg class="icon" width="200px" height="200.00px" viewBox="0 0 1024 1024" version="1.1" xmlns="http://www.w3.org/2000/svg"><path d="M306.69 349.007l408.37-0.378c22.464 0 40.679-18.214 40.679-40.678s-18.215-40.678-40.679-40.678l-408.37 0.378c-22.466 0-40.68 18.203-40.68 40.678 0 22.464 18.214 40.678 40.68 40.678zM306.69 511.72l408.37-0.378c22.464 0 40.679-18.214 40.679-40.677 0-22.464-18.215-40.678-40.679-40.678l-408.37 0.378c-22.466 0-40.68 18.202-40.68 40.677 0 22.464 18.214 40.678 40.68 40.678zM877.157 624.19l-0.338-482.537c-1.905-43.141-37.142-77.602-80.721-77.752l-573.367 0.328c-43.22 1.918-77.763 37.302-77.763 81v43.22h-0.335l0.277 645.768h0.058v43.22c0 44.928 36.429 81.355 81.358 81.355h40.678v0.23l120.088-0.219c22.465 0 40.68-18.214 40.68-40.677 0-22.466-18.215-40.68-40.68-40.68l-104.774 0.19c-39.148-3.784-53.51-17.012-56.051-58.138l-0.279-623.272 0.239 32.225c-0.972-69.329 14.937-81.883 80.205-82.805l-9.415-0.1 419.394-0.238c60.562 1.43 78.278 12.653 79.115 70.175v3.744c0 3 0 5.999-0.082 9.246l0.082-4.081 0.257 367.961-160.131 0.218v0.118h-43.22c-44.929 0-81.356 36.418-81.356 81.358v40.677h-0.278l0.258 195.507c-2.622 12.931 1.034 26.874 11.063 36.903a40.664 40.664 0 0 0 13.687 9.006 40.583 40.583 0 0 0 15.927 3.25c14.204 0 26.657-7.29 33.925-18.304l271.68-272.364c3.017-1.826 5.839-3.932 8.303-6.463 7.704-7.398 12.532-17.749 12.532-29.279-0.002-3.03-0.38-5.948-1.016-8.79zM592.29 819.24l-0.079-67.762c0.557-61.91 14.897-77.462 82.55-77.462l-82.072 0.545-0.497 73.224-0.1-73.8 145.275-0.197L592.29 819.24z" /></svg>